<?xml version="1.0" standalone="no"?><!DOCTYPE svg PUBLIC "-//W3C//DTD SVG 1.1//EN" "http://www.w3.org/Graphics/SVG/1.1/DTD/svg11.dtd"><svg width="100%" height="100%" viewBox="0 0 86 84" version="1.1" xmlns="http://www.w3.org/2000/svg" xmlns:xlink="http://www.w3.org/1999/xlink" xml:space="preserve" style="fill-rule:evenodd;clip-rule:evenodd;stroke-linejoin:round;stroke-miterlimit:1.41421;"><g><circle cx="42.782" cy="42.86" r="39.538" style="fill:#5d5d5d;"/><circle cx="42.883" cy="42.86" r="27.142" style="fill:#969696;"/><path d="M50.737,1.249c-5.176,-0.974 -10.488,-0.974 -15.663,0c-1.917,3.587 -4.616,6.432 -8.098,8.534c-3.814,1.411 -7.721,1.748 -11.72,1.01c-3.989,3.439 -7.301,7.592 -9.766,12.246c1.609,3.735 2.15,7.619 1.623,11.652c-1.275,3.861 -3.448,7.126 -6.518,9.793c0.202,5.263 1.384,10.441 3.486,15.27c3.923,1.071 7.297,3.07 10.121,5.996c2.225,3.405 3.422,7.139 3.593,11.202c4.241,3.123 9.026,5.428 14.112,6.796c3.284,-2.4 6.95,-3.791 10.998,-4.175c4.049,0.384 7.715,1.775 10.999,4.175c5.085,-1.368 9.871,-3.673 14.111,-6.796c0.172,-4.063 1.369,-7.797 3.594,-11.202c2.824,-2.926 6.198,-4.925 10.121,-5.996c2.101,-4.829 3.283,-10.007 3.485,-15.27c-3.07,-2.667 -5.242,-5.932 -6.517,-9.793c-0.527,-4.033 0.014,-7.917 1.623,-11.652c-2.466,-4.654 -5.777,-8.807 -9.766,-12.246c-3.999,0.738 -7.906,0.401 -11.721,-1.01c-3.481,-2.102 -6.18,-4.947 -8.097,-8.534l0,0ZM42.905,16.531c14.532,0 26.329,11.798 26.329,26.329c0,14.531 -11.797,26.329 -26.329,26.329c-14.531,0 -26.329,-11.798 -26.329,-26.329c0,-14.531 11.798,-26.329 26.329,-26.329l0,0Z" style="fill:#7c7c7c;"/><path d="M44.389,0.669c0,-0.083 -0.067,-0.15 -0.15,-0.15l-2.914,0c-0.083,0 -0.15,0.067 -0.15,0.15l0,15.852c0,0.083 0.067,0.15 0.15,0.15l2.914,0c0.083,0 0.15,-0.067 0.15,-0.15l0,-15.852l0,0Z" style="fill:#fffefd;"/></g></svg>