<?xml version="1.0" standalone="no"?><!DOCTYPE svg PUBLIC "-//W3C//DTD SVG 1.1//EN" "http://www.w3.org/Graphics/SVG/1.1/DTD/svg11.dtd"><svg width="100%" height="100%" viewBox="0 0 149 149" version="1.1" xmlns="http://www.w3.org/2000/svg" xmlns:xlink="http://www.w3.org/1999/xlink" xml:space="preserve" style="fill-rule:evenodd;clip-rule:evenodd;stroke-linejoin:round;stroke-miterlimit:1.41421;"><g><circle cx="74.507" cy="74.874" r="74.103" style="fill:#4f4f4f;"/><circle cx="74.507" cy="74.874" r="71.811" style="fill:#8c8c8c;"/><circle cx="74.507" cy="74.874" r="61.176" style="fill:#4f4f4f;"/><path d="M75.417,14.226c-0.607,-0.01 -1.213,-0.01 -1.82,0l-2.971,1.442l-3.133,-1.042c-0.603,0.07 -1.204,0.149 -1.805,0.237l-2.756,1.818l-3.243,-0.625c-0.588,0.149 -1.174,0.306 -1.758,0.472l-2.496,2.162l-3.296,-0.196c-0.564,0.224 -1.125,0.456 -1.682,0.696l-2.192,2.47l-3.294,0.236c-0.53,0.295 -1.055,0.599 -1.576,0.91l-1.851,2.735l-3.235,0.663c-0.487,0.362 -0.969,0.732 -1.444,1.108l-1.478,2.953l-3.121,1.08c-0.436,0.423 -0.865,0.852 -1.287,1.288l-1.08,3.12l-2.953,1.478c-0.377,0.476 -0.746,0.958 -1.109,1.445l-0.663,3.234l-2.735,1.851c-0.311,0.521 -0.614,1.047 -0.91,1.577l-0.235,3.294l-2.47,2.192c-0.241,0.557 -0.473,1.117 -0.697,1.682l0.196,3.296l-2.162,2.496c-0.166,0.583 -0.323,1.17 -0.471,1.758l0.625,3.242l-1.818,2.757c-0.089,0.6 -0.168,1.202 -0.238,1.805l1.043,3.133l-1.443,2.97c-0.009,0.607 -0.009,1.214 0,1.821l1.443,2.97l-1.043,3.133c0.07,0.603 0.149,1.205 0.238,1.805l1.818,2.757l-0.625,3.242c0.148,0.589 0.305,1.175 0.471,1.759l2.162,2.495l-0.196,3.297c0.224,0.564 0.456,1.125 0.697,1.682l2.47,2.192l0.235,3.293c0.296,0.53 0.599,1.056 0.91,1.577l2.735,1.851l0.663,3.235c0.363,0.487 0.732,0.968 1.109,1.444l2.953,1.478l1.08,3.121c0.422,0.435 0.851,0.864 1.287,1.287l3.121,1.08l1.478,2.953c0.475,0.377 0.957,0.746 1.444,1.108l3.235,0.664l1.851,2.734c0.521,0.312 1.046,0.615 1.576,0.911l3.294,0.235l2.192,2.47c0.557,0.24 1.118,0.473 1.682,0.697l3.296,-0.197l2.496,2.163c0.584,0.165 1.17,0.323 1.758,0.471l3.243,-0.625l2.756,1.818c0.601,0.088 1.202,0.168 1.805,0.238l3.133,-1.043l2.971,1.443c0.607,0.009 1.213,0.009 1.82,0l2.971,-1.443l3.133,1.043c0.603,-0.07 1.204,-0.15 1.805,-0.238l2.756,-1.818l3.243,0.625c0.588,-0.148 1.174,-0.306 1.758,-0.471l2.496,-2.163l3.296,0.197c0.564,-0.224 1.125,-0.457 1.682,-0.697l2.192,-2.47l3.294,-0.235c0.53,-0.296 1.055,-0.599 1.576,-0.911l1.851,-2.734l3.235,-0.664c0.487,-0.362 0.969,-0.731 1.444,-1.108l1.478,-2.953l3.121,-1.08c0.436,-0.423 0.865,-0.852 1.287,-1.287l1.08,-3.121l2.953,-1.478c0.377,-0.476 0.746,-0.957 1.108,-1.444l0.664,-3.235l2.735,-1.851c0.311,-0.521 0.614,-1.047 0.91,-1.577l0.235,-3.293l2.47,-2.192c0.241,-0.557 0.473,-1.118 0.697,-1.682l-0.197,-3.297l2.163,-2.495c0.166,-0.584 0.323,-1.17 0.471,-1.759l-0.625,-3.242l1.818,-2.757c0.089,-0.6 0.168,-1.202 0.238,-1.805l-1.043,-3.133l1.443,-2.97c0.009,-0.607 0.009,-1.214 0,-1.821l-1.443,-2.97l1.043,-3.133c-0.07,-0.603 -0.149,-1.205 -0.238,-1.805l-1.818,-2.757l0.625,-3.242c-0.148,-0.588 -0.305,-1.175 -0.471,-1.758l-2.163,-2.496l0.197,-3.296c-0.224,-0.565 -0.456,-1.125 -0.697,-1.682l-2.47,-2.192l-0.235,-3.294c-0.296,-0.53 -0.599,-1.056 -0.91,-1.577l-2.735,-1.851l-0.664,-3.234c-0.362,-0.487 -0.731,-0.969 -1.108,-1.445l-2.953,-1.478l-1.08,-3.12c-0.422,-0.436 -0.851,-0.865 -1.287,-1.288l-3.121,-1.08l-1.478,-2.953c-0.475,-0.376 -0.957,-0.746 -1.444,-1.108l-3.235,-0.663l-1.851,-2.735c-0.521,-0.311 -1.046,-0.615 -1.576,-0.91l-3.294,-0.236l-2.192,-2.47c-0.557,-0.24 -1.118,-0.472 -1.682,-0.696l-3.296,0.196l-2.496,-2.162c-0.584,-0.166 -1.17,-0.323 -1.758,-0.472l-3.243,0.625l-2.756,-1.818c-0.601,-0.088 -1.202,-0.167 -1.805,-0.237l-3.133,1.042l-2.971,-1.442Z" style="fill:url(#_Radial1);stroke-width:0.5px;stroke:#595959;"/><rect x="72.059" y="3.063" width="4.757" height="15.552" style="fill:#141510;"/></g><defs><radialGradient id="_Radial1" cx="0" cy="0" r="1" gradientUnits="userSpaceOnUse" gradientTransform="matrix(60.655,0,-1.32806e-45,60.655,74.507,74.8736)"><stop offset="0%" style="stop-color:#fff;stop-opacity:1"/><stop offset="100%" style="stop-color:#bebebe;stop-opacity:1"/></radialGradient></defs></svg>