<?xml version="1.0" standalone="no"?><!DOCTYPE svg PUBLIC "-//W3C//DTD SVG 1.1//EN" "http://www.w3.org/Graphics/SVG/1.1/DTD/svg11.dtd"><svg width="100%" height="100%" viewBox="0 0 149 149" version="1.1" xmlns="http://www.w3.org/2000/svg" xmlns:xlink="http://www.w3.org/1999/xlink" xml:space="preserve" style="fill-rule:evenodd;clip-rule:evenodd;stroke-linejoin:round;stroke-miterlimit:1.41421;"><g><circle cx="74.245" cy="74.392" r="74.103" style="fill:#4f4f4f;"/><circle cx="74.245" cy="74.392" r="71.811" style="fill:#8c8c8c;"/><circle cx="74.245" cy="74.392" r="61.176" style="fill:#4f4f4f;"/><path d="M75.156,13.744c-0.607,-0.009 -1.214,-0.009 -1.821,0l-2.97,1.443l-3.133,-1.043c-0.603,0.07 -1.205,0.149 -1.805,0.238l-2.757,1.818l-3.242,-0.625c-0.589,0.148 -1.175,0.305 -1.759,0.471l-2.495,2.163l-3.297,-0.197c-0.564,0.224 -1.125,0.456 -1.682,0.697l-2.192,2.47l-3.294,0.235c-0.53,0.296 -1.055,0.599 -1.576,0.91l-1.851,2.735l-3.235,0.664c-0.487,0.362 -0.968,0.731 -1.444,1.108l-1.478,2.953l-3.121,1.08c-0.435,0.422 -0.864,0.852 -1.287,1.287l-1.08,3.121l-2.953,1.478c-0.377,0.476 -0.746,0.957 -1.108,1.444l-0.664,3.235l-2.734,1.851c-0.312,0.521 -0.615,1.046 -0.911,1.576l-0.235,3.294l-2.47,2.192c-0.241,0.557 -0.473,1.118 -0.697,1.682l0.197,3.296l-2.163,2.496c-0.166,0.584 -0.323,1.17 -0.471,1.759l0.625,3.242l-1.818,2.757c-0.088,0.6 -0.168,1.202 -0.238,1.804l1.043,3.134l-1.443,2.97c-0.009,0.607 -0.009,1.214 0,1.82l1.443,2.971l-1.043,3.133c0.07,0.603 0.15,1.204 0.238,1.805l1.818,2.756l-0.625,3.243c0.148,0.588 0.305,1.175 0.471,1.758l2.163,2.496l-0.197,3.296c0.224,0.564 0.456,1.125 0.697,1.682l2.47,2.192l0.235,3.294c0.296,0.53 0.599,1.056 0.911,1.577l2.734,1.85l0.664,3.235c0.362,0.487 0.731,0.969 1.108,1.445l2.953,1.478l1.08,3.12c0.423,0.436 0.852,0.865 1.287,1.288l3.121,1.08l1.478,2.952c0.476,0.377 0.957,0.747 1.444,1.109l3.235,0.663l1.851,2.735c0.521,0.311 1.046,0.615 1.576,0.91l3.294,0.236l2.192,2.469c0.557,0.241 1.118,0.473 1.682,0.697l3.297,-0.196l2.495,2.162c0.584,0.166 1.17,0.323 1.759,0.471l3.242,-0.625l2.757,1.819c0.6,0.088 1.202,0.167 1.805,0.237l3.133,-1.043l2.97,1.443c0.607,0.009 1.214,0.009 1.821,0l2.97,-1.443l3.133,1.043c0.603,-0.07 1.204,-0.149 1.805,-0.237l2.756,-1.819l3.243,0.625c0.588,-0.148 1.175,-0.305 1.758,-0.471l2.496,-2.162l3.296,0.196c0.564,-0.224 1.125,-0.456 1.682,-0.697l2.192,-2.469l3.294,-0.236c0.53,-0.295 1.056,-0.599 1.577,-0.91l1.851,-2.735l3.234,-0.663c0.487,-0.362 0.969,-0.732 1.445,-1.109l1.478,-2.952l3.12,-1.08c0.436,-0.423 0.865,-0.852 1.288,-1.288l1.08,-3.12l2.953,-1.478c0.376,-0.476 0.746,-0.958 1.108,-1.445l0.663,-3.235l2.735,-1.85c0.311,-0.521 0.615,-1.047 0.91,-1.577l0.236,-3.294l2.47,-2.192c0.24,-0.557 0.472,-1.118 0.696,-1.682l-0.196,-3.296l2.162,-2.496c0.166,-0.583 0.323,-1.17 0.471,-1.758l-0.625,-3.243l1.819,-2.756c0.088,-0.601 0.167,-1.202 0.237,-1.805l-1.043,-3.133l1.443,-2.971c0.01,-0.606 0.01,-1.213 0,-1.82l-1.443,-2.97l1.043,-3.134c-0.07,-0.602 -0.149,-1.204 -0.237,-1.804l-1.819,-2.757l0.625,-3.242c-0.148,-0.589 -0.305,-1.175 -0.471,-1.759l-2.162,-2.496l0.196,-3.296c-0.224,-0.564 -0.456,-1.125 -0.696,-1.682l-2.47,-2.192l-0.236,-3.294c-0.295,-0.53 -0.599,-1.055 -0.91,-1.576l-2.735,-1.851l-0.663,-3.235c-0.362,-0.487 -0.732,-0.968 -1.108,-1.444l-2.953,-1.478l-1.08,-3.121c-0.423,-0.435 -0.852,-0.865 -1.288,-1.287l-3.12,-1.08l-1.478,-2.953c-0.476,-0.377 -0.958,-0.746 -1.445,-1.108l-3.234,-0.664l-1.851,-2.735c-0.521,-0.311 -1.047,-0.614 -1.577,-0.91l-3.294,-0.235l-2.192,-2.47c-0.557,-0.241 -1.118,-0.473 -1.682,-0.697l-3.296,0.197l-2.496,-2.163c-0.583,-0.166 -1.17,-0.323 -1.758,-0.471l-3.243,0.625l-2.756,-1.818c-0.601,-0.089 -1.202,-0.168 -1.805,-0.238l-3.133,1.043l-2.97,-1.443Z" style="fill:url(#_Radial1);stroke-width:0.5px;stroke:#595959;"/><rect x="71.797" y="2.581" width="4.757" height="15.552" style="fill:#141510;"/></g><defs><radialGradient id="_Radial1" cx="0" cy="0" r="1" gradientUnits="userSpaceOnUse" gradientTransform="matrix(60.655,0,-1.32806e-45,60.655,74.2453,74.3922)"><stop offset="0%" style="stop-color:#fff;stop-opacity:1"/><stop offset="100%" style="stop-color:#bebebe;stop-opacity:1"/></radialGradient></defs></svg>