<?xml version="1.0" standalone="no"?><!DOCTYPE svg PUBLIC "-//W3C//DTD SVG 1.1//EN" "http://www.w3.org/Graphics/SVG/1.1/DTD/svg11.dtd"><svg width="100%" height="100%" viewBox="0 0 86 84" version="1.1" xmlns="http://www.w3.org/2000/svg" xmlns:xlink="http://www.w3.org/1999/xlink" xml:space="preserve" style="fill-rule:evenodd;clip-rule:evenodd;stroke-linejoin:round;stroke-miterlimit:1.41421;"><g><circle cx="42.604" cy="43.052" r="39.594" style="fill:#2a2a2a;"/><circle cx="42.705" cy="43.052" r="27.18" style="fill:url(#_Radial1);"/><path d="M50.57,1.383c-5.183,-0.976 -10.502,-0.976 -15.685,0c-1.92,3.591 -4.623,6.44 -8.109,8.545c-3.82,1.413 -7.732,1.75 -11.738,1.012c-3.994,3.444 -7.31,7.603 -9.779,12.263c1.611,3.741 2.153,7.63 1.625,11.668c-1.277,3.867 -3.452,7.137 -6.527,9.808c0.203,5.27 1.386,10.456 3.491,15.291c3.928,1.073 7.307,3.074 10.135,6.005c2.228,3.409 3.427,7.148 3.599,11.217c4.246,3.128 9.039,5.436 14.131,6.806c3.289,-2.403 6.96,-3.797 11.014,-4.181c4.055,0.384 7.726,1.778 11.014,4.181c5.093,-1.37 9.886,-3.678 14.132,-6.806c0.171,-4.069 1.371,-7.808 3.598,-11.217c2.828,-2.931 6.207,-4.932 10.136,-6.005c2.104,-4.835 3.288,-10.021 3.49,-15.291c-3.074,-2.671 -5.25,-5.941 -6.527,-9.808c-0.527,-4.038 0.014,-7.927 1.626,-11.668c-2.469,-4.66 -5.786,-8.819 -9.78,-12.263c-4.005,0.738 -7.917,0.401 -11.737,-1.012c-3.486,-2.105 -6.189,-4.954 -8.109,-8.545ZM42.727,16.686c14.552,0 26.367,11.814 26.367,26.366c0,14.552 -11.815,26.366 -26.367,26.366c-14.552,0 -26.366,-11.814 -26.366,-26.366c0,-14.552 11.814,-26.366 26.366,-26.366Z" style="fill:url(#_Linear2);"/><path d="M44.213,0.801c0,-0.083 -0.067,-0.15 -0.15,-0.15l-2.918,0c-0.083,0 -0.15,0.067 -0.15,0.15l0,15.875c0,0.083 0.067,0.15 0.15,0.15l2.918,0c0.083,0 0.15,-0.067 0.15,-0.15l0,-15.875Z" style="fill:#fffefd;"/></g><defs><radialGradient id="_Radial1" cx="0" cy="0" r="1" gradientUnits="userSpaceOnUse" gradientTransform="matrix(27.1801,-1.56126e-30,-1.3661e-30,27.1801,42.7053,43.0521)"><stop offset="0%" style="stop-color:#fff;stop-opacity:1"/><stop offset="100%" style="stop-color:#8599ab;stop-opacity:1"/></radialGradient><linearGradient id="_Linear2" x1="0" y1="0" x2="1" y2="0" gradientUnits="userSpaceOnUse" gradientTransform="matrix(58.3756,5.93904,-5.93904,58.3756,54.9947,52.888)"><stop offset="0%" style="stop-color:#000;stop-opacity:1"/><stop offset="100%" style="stop-color:#4d4d4d;stop-opacity:1"/></linearGradient></defs></svg>