<?xml version="1.0" standalone="no"?><!DOCTYPE svg PUBLIC "-//W3C//DTD SVG 1.1//EN" "http://www.w3.org/Graphics/SVG/1.1/DTD/svg11.dtd"><svg width="100%" height="100%" viewBox="0 0 127 43" version="1.1" xmlns="http://www.w3.org/2000/svg" xmlns:xlink="http://www.w3.org/1999/xlink" xml:space="preserve" style="fill-rule:evenodd;clip-rule:evenodd;stroke-linejoin:round;stroke-miterlimit:1.41421;"><path id="korg_logo" d="M124.517,1.443l-17.963,0c-8.713,0 -9.326,8.525 -9.326,8.525l0,23.676c0.013,7.605 8.675,8.584 8.675,8.584l18.614,0l0,-22.103c2.137,0 1.987,-3.986 0,-3.986c-1.8,0 -11.838,0 -11.838,0l0,15.102c0,2.808 -4.075,2.808 -4.075,0c0,-2.848 0,-18.777 0,-18.777c0,-1.818 2.038,-2.041 2.038,-2.041l13.875,0l0,-8.98M80.441,15.731c0,2.417 -4.088,2.683 -4.088,0l0,-4.082c-0.112,-2.803 4.1,-2.851 4.088,0l0,4.082ZM90.228,23.078l-4.9,-1.224c3.825,-1.005 5.913,-3.108 5.975,-6.558l0,-7.948c0,-1.35 -1.712,-5.702 -7.2,-5.904l-19.175,0l0,40.821l11.425,0l0,-15.514c-0.262,-0.802 1.838,-2.605 2.425,-0.248l3.288,15.762l12.662,0l-4.5,-19.187M48.589,31.241c0,2.552 -4.075,2.595 -4.075,0l0,-18.777c0,-2.569 4.075,-2.55 4.075,0c0,2.551 0,16.229 0,18.777ZM59.989,9.895c0,0 -0.4,-8.25 -9.35,-8.657l-8.162,0c-1.05,-0.037 -9.289,1.157 -9.401,9.39l0,23.201c0,0 0.712,8.619 9.401,8.637l8.162,0c0,0 9.4,-0.318 9.388,-9.386l-0.038,-23.185M1.237,42.264l0,-40.821l11.437,0l0,15.102c0.188,2.051 2.275,1.14 2.425,0.195l2.475,-15.297l12.652,0l-4.488,18.777l-4.9,1.223l5.3,1.226l4.5,19.595l-12.662,0l-2.877,-16.539c-0.137,-1.28 -2.387,-1.291 -2.425,0.21c-0.037,1.499 0,16.329 0,16.329l-11.437,0" style="fill:#dc2141;fill-rule:nonzero;"/></svg>